<svg xmlns="http://www.w3.org/2000/svg" width="87.059" height="74" viewBox="0 0 87.059 74">
  <g id="noun_web_browser_955631" data-name="noun_web browser_955631" transform="translate(985 -1284.4)">
    <g id="Group_1013" data-name="Group 1013" transform="translate(-37.1 325)">
      <g id="Group_1011" data-name="Group 1011" transform="translate(-947.9 959.4)">
        <path id="Path_297" data-name="Path 297" d="M-865.638,959.4h-77.553a4.74,4.74,0,0,0-4.708,4.708v56.055a4.74,4.74,0,0,0,4.708,4.708h48.5l-.888-2.487h-47.616a2.2,2.2,0,0,1-2.221-2.221V971.57h82.084v48.593a2.2,2.2,0,0,1-2.221,2.221h-11.993l2.487,2.487h9.505a4.74,4.74,0,0,0,4.708-4.708V964.108A4.877,4.877,0,0,0-865.638,959.4Zm-76.31,7.373a1.215,1.215,0,0,1-1.244-1.244,1.214,1.214,0,0,1,1.244-1.244,1.214,1.214,0,0,1,1.244,1.244A1.27,1.27,0,0,1-941.948,966.773Zm4.086,0a1.215,1.215,0,0,1-1.244-1.244,1.215,1.215,0,0,1,1.244-1.244,1.214,1.214,0,0,1,1.244,1.244A1.214,1.214,0,0,1-937.862,966.773Zm4.175,0a1.214,1.214,0,0,1-1.244-1.244,1.214,1.214,0,0,1,1.244-1.244,1.215,1.215,0,0,1,1.244,1.244A1.271,1.271,0,0,1-933.686,966.773Zm44.862,0h-31.359a1.215,1.215,0,0,1-1.244-1.244,1.215,1.215,0,0,1,1.244-1.244h31.359a1.215,1.215,0,0,1,1.244,1.244A1.215,1.215,0,0,1-888.824,966.773Z" transform="translate(947.9 -959.4)" fill="#fff"/>
      </g>
      <g id="Group_1012" data-name="Group 1012" transform="translate(-896.406 1011.661)">
        <path id="Path_298" data-name="Path 298" d="M-876.4,1027.353l3.82-1.954a.822.822,0,0,0-.089-1.51l-16.168-5.6a.838.838,0,0,0-1.066,1.066l5.6,16.168a.822.822,0,0,0,1.51.089l1.954-3.82,7.906,7.906a.757.757,0,0,0,1.155,0l3.2-3.2a.757.757,0,0,0,0-1.155Z" transform="translate(889.935 -1018.229)" fill="#fff"/>
      </g>
    </g>
  </g>
</svg>
