<svg xmlns="http://www.w3.org/2000/svg" width="69.816" height="74" viewBox="0 0 69.816 74">
  <g id="noun_branding_3410089" transform="translate(1027.881 -917.122)">
    <g id="Group_1009" data-name="Group 1009" transform="translate(-1027.881 917.122)">
      <path id="Path_287" data-name="Path 287" d="M39.119,395.328a1.1,1.1,0,0,0,1.091,1.1h7.623a1.1,1.1,0,0,0,1.091-1.1v-5.106H39.119Z" transform="translate(-39.119 -331.618)" fill="#fff"/>
      <path id="Path_288" data-name="Path 288" d="M48.328,26.122l-4.074,7.965h8.152Z" transform="translate(-43.427 -26.122)" fill="#fff"/>
      <rect id="Rectangle_451" data-name="Rectangle 451" width="3.597" height="45.429" transform="translate(0 10.57)" fill="#fff"/>
      <rect id="Rectangle_452" data-name="Rectangle 452" width="3.6" height="45.429" transform="translate(6.205 10.57)" fill="#fff"/>
      <path id="Path_289" data-name="Path 289" d="M213.745,57.614a3.862,3.862,0,0,0-.211-1.072c-2.222-1.216-7.477-.83-10.447-.256a1.3,1.3,0,0,1-1.552-1.278v-9.47a4.166,4.166,0,0,0-4.16-4.161H170.7V77.716h43.047Zm-23.074,3.449a1.3,1.3,0,0,1-1.3,1.3H176.013a1.3,1.3,0,0,1-1.3-1.3V45.848a1.3,1.3,0,0,1,1.3-1.3h13.354a1.3,1.3,0,0,1,1.3,1.3Zm18.586,12.445H193.8a1.3,1.3,0,1,1,0-2.6h15.457a1.3,1.3,0,1,1,0,2.6Zm0-5.508H193.8a1.3,1.3,0,1,1,0-2.6h15.457a1.3,1.3,0,1,1,0,2.6Z" transform="translate(-149.52 -38.922)" fill="#fff"/>
      <rect id="Rectangle_453" data-name="Rectangle 453" width="10.747" height="12.61" transform="translate(27.797 8.229)" fill="#fff"/>
      <path id="Path_290" data-name="Path 290" d="M385.321,79.5l-6.831-6.815v7.06A30.572,30.572,0,0,1,385.321,79.5Z" transform="translate(-323.867 -65.187)" fill="#fff"/>
      <rect id="Rectangle_454" data-name="Rectangle 454" width="6.774" height="9.397" transform="translate(36.924 58.012)" fill="#fff"/>
      <path id="Path_291" data-name="Path 291" d="M213.745,283.332H170.7V303h6.545V291.372a1.3,1.3,0,0,1,1.3-1.3h35.2v-6.738Z" transform="translate(-149.52 -241.933)" fill="#fff"/>
      <path id="Path_292" data-name="Path 292" d="M227.566,341.376v23.258h39.485V341.376Zm15.975,17.969a1.3,1.3,0,0,1-1.3,1.3h-9.382a1.3,1.3,0,0,1-1.3-1.3v-12a1.3,1.3,0,0,1,1.3-1.3h9.382a1.3,1.3,0,0,1,1.3,1.3Zm18.389-.938H250.691a1.3,1.3,0,1,1,0-2.6H261.93a1.3,1.3,0,1,1,0,2.6Zm0-8.2H250.691a1.3,1.3,0,1,1,0-2.6H261.93a1.3,1.3,0,1,1,0,2.6Z" transform="translate(-197.235 -290.634)" fill="#fff"/>
      <path id="Path_293" data-name="Path 293" d="M222.564,89.86H211.817V77.25h10.747Z" transform="translate(-184.02 -69.021)" fill="#fff"/>
    </g>
  </g>
</svg>
