<svg xmlns="http://www.w3.org/2000/svg" width="74" height="74" viewBox="0 0 74 74">
  <g id="noun_Printer_4065770" transform="translate(-2 -2)">
    <path id="Path_294" data-name="Path 294" d="M72.3,19.267H67.367V3.233A1.233,1.233,0,0,0,66.133,2H11.867a1.233,1.233,0,0,0-1.233,1.233V19.267H5.7a3.7,3.7,0,0,0-3.7,3.7V55.033a3.7,3.7,0,0,0,3.7,3.7h4.933V74.767A1.233,1.233,0,0,0,11.867,76H66.133a1.233,1.233,0,0,0,1.233-1.233V58.733H72.3a3.7,3.7,0,0,0,3.7-3.7V22.967A3.7,3.7,0,0,0,72.3,19.267Zm-61.667,7.4V21.733H20.5v4.933ZM64.9,50.1V73.533H54.034A7.4,7.4,0,0,0,52.863,64.6a7.227,7.227,0,0,0-4-2.047v6.315a2.2,2.2,0,0,1-2.2,2.2H40.344a7.523,7.523,0,0,0,.9,2.467H13.1V48.867H23.966A7.4,7.4,0,0,0,25.2,57.8a7.227,7.227,0,0,0,3.934,2.047V53.529a2.2,2.2,0,0,1,2.2-2.2h6.327a7.524,7.524,0,0,0-.9-2.467H64.9ZM22.967,26.667V21.733h9.867v4.933Zm41.933-7.4H13.1V4.467H64.9Z" fill="#fff"/>
    <path id="Path_295" data-name="Path 295" d="M39.567,44H27.233A1.233,1.233,0,0,0,26,45.233V57.567A1.233,1.233,0,0,0,27.233,58.8H39.567A1.233,1.233,0,0,0,40.8,57.567V45.233A1.233,1.233,0,0,0,39.567,44ZM38.333,56.333H28.467V46.467h9.867Z" transform="translate(5.6 9.8)" fill="#fff"/>
  </g>
</svg>
