<svg xmlns="http://www.w3.org/2000/svg" width="90.156" height="74" viewBox="0 0 90.156 74">
  <g id="noun_iMac_843718" transform="translate(0 -6)">
    <g id="Group_1010" data-name="Group 1010" transform="translate(0 6)">
      <path id="Path_296" data-name="Path 296" d="M3.566,6A3.589,3.589,0,0,0,0,9.61V64.328a3.628,3.628,0,0,0,3.566,3.654H86.59a3.628,3.628,0,0,0,3.566-3.654V9.61A3.589,3.589,0,0,0,86.59,6ZM4.93,10.93h80.3V54.6H4.93Zm30.155,58.46c-.02,1.288-.035,2.4-.132,3.126a3.832,3.832,0,0,1-.968,2.377c-.609.68-1.677,1.675-2.377,2.553a2.187,2.187,0,0,0-.7,1.453,1.125,1.125,0,0,0,.528.88,1.734,1.734,0,0,0,.924.22H57.8a1.73,1.73,0,0,0,.924-.22,1.125,1.125,0,0,0,.528-.88,2.187,2.187,0,0,0-.7-1.453c-.7-.879-1.768-1.873-2.377-2.553a3.832,3.832,0,0,1-.968-2.377c-.1-.721-.112-1.838-.132-3.126Z" transform="translate(0 -6)" fill="#fff"/>
    </g>
  </g>
</svg>
