<svg xmlns="http://www.w3.org/2000/svg" width="28.957" height="28.957" viewBox="0 0 28.957 28.957">
  <path id="codepen-brands_1_" data-name="codepen-brands (1)" d="M28.408,9.033,15.173.21a1.257,1.257,0,0,0-1.39,0L.549,9.033A1.265,1.265,0,0,0,0,10.067V18.89a1.265,1.265,0,0,0,.549,1.034l13.234,8.824a1.257,1.257,0,0,0,1.39,0l13.234-8.824a1.265,1.265,0,0,0,.549-1.034V10.067a1.265,1.265,0,0,0-.55-1.034ZM15.723,3.571l9.744,6.5L21.12,12.976l-5.4-3.6Zm-2.488,0v5.8l-5.4,3.6L3.49,10.067ZM2.488,12.394l3.119,2.085L2.488,16.563V12.394ZM13.234,25.386,3.49,18.89l4.347-2.909,5.4,3.6Zm1.244-7.966-4.4-2.941,4.4-2.941,4.4,2.941Zm1.244,7.966v-5.8l5.4-3.6,4.347,2.909Zm10.746-8.823L23.35,14.479l3.119-2.085v4.169Z" transform="translate(0 -0.001)" fill="#fefcf1"/>
</svg>
