<svg xmlns="http://www.w3.org/2000/svg" width="29.446" height="28.71" viewBox="0 0 29.446 28.71">
  <path id="github-brands_2_" data-name="github-brands (2)" d="M9.849,31.118c0,.119-.137.214-.309.214-.2.018-.332-.077-.332-.214,0-.119.137-.214.309-.214C9.695,30.886,9.849,30.981,9.849,31.118ZM8,30.85c-.042.119.077.255.255.291a.278.278,0,0,0,.368-.119c.036-.119-.077-.255-.255-.309A.3.3,0,0,0,8,30.85Zm2.624-.1c-.172.042-.291.154-.273.291.018.119.172.2.35.154s.291-.154.273-.273S10.8,30.732,10.627,30.75ZM14.533,8A14.236,14.236,0,0,0,0,22.486a14.884,14.884,0,0,0,10.063,14.2c.76.137,1.027-.332,1.027-.718,0-.368-.018-2.4-.018-3.645,0,0-4.156.891-5.028-1.769,0,0-.677-1.728-1.65-2.173,0,0-1.36-.932.095-.914A3.134,3.134,0,0,1,6.78,29a3.138,3.138,0,0,0,4.328,1.241,3.3,3.3,0,0,1,.95-2c-3.319-.368-6.667-.849-6.667-6.56a4.5,4.5,0,0,1,1.4-3.5,5.609,5.609,0,0,1,.154-4.031c1.241-.386,4.1,1.6,4.1,1.6a14.025,14.025,0,0,1,7.457,0s2.856-1.995,4.1-1.6a5.606,5.606,0,0,1,.154,4.031,4.615,4.615,0,0,1,1.532,3.5c0,5.729-3.5,6.186-6.815,6.56a3.511,3.511,0,0,1,1.009,2.755c0,2-.018,4.476-.018,4.963,0,.386.273.855,1.027.718a14.747,14.747,0,0,0,9.962-14.189C29.446,14.251,22.767,8,14.533,8ZM5.771,28.476c-.077.059-.059.2.042.309.095.095.232.137.309.059.077-.059.059-.2-.042-.309C5.984,28.44,5.848,28.4,5.771,28.476Zm-.641-.481c-.042.077.018.172.137.232a.177.177,0,0,0,.255-.042c.042-.077-.018-.172-.137-.232C5.266,27.918,5.171,27.936,5.129,27.995Zm1.924,2.113c-.095.077-.059.255.077.368.137.137.309.154.386.059.077-.077.042-.255-.077-.368C7.308,30.031,7.13,30.013,7.053,30.108Zm-.677-.873c-.095.059-.095.214,0,.35s.255.2.332.137a.271.271,0,0,0,0-.368c-.083-.137-.237-.2-.332-.119Z" transform="translate(0 -8)" fill="#fefcf1"/>
</svg>
