<svg xmlns="http://www.w3.org/2000/svg" width="35.35" height="28.71" viewBox="0 0 35.35 28.71">
  <path id="twitter-brands_1_" data-name="twitter-brands (1)" d="M31.716,55.237c.022.314.022.628.022.942,0,9.578-7.29,20.613-20.613,20.613A20.473,20.473,0,0,1,0,73.54a14.987,14.987,0,0,0,1.75.09,14.509,14.509,0,0,0,8.994-3.1A7.258,7.258,0,0,1,3.97,65.51a9.136,9.136,0,0,0,1.368.112,7.662,7.662,0,0,0,1.907-.247,7.246,7.246,0,0,1-5.809-7.11v-.09a7.3,7.3,0,0,0,3.275.92,7.256,7.256,0,0,1-2.243-9.69,20.593,20.593,0,0,0,14.938,7.581,8.179,8.179,0,0,1-.179-1.66A7.252,7.252,0,0,1,29.765,50.37a14.264,14.264,0,0,0,4.6-1.75,7.225,7.225,0,0,1-3.185,3.993,14.524,14.524,0,0,0,4.172-1.121A15.574,15.574,0,0,1,31.716,55.237Z" transform="translate(0 -48.082)" fill="#fefcf1"/>
</svg>
