<svg xmlns="http://www.w3.org/2000/svg" width="36" height="40" viewBox="0 0 36 40">
  <path id="Path_273" data-name="Path 273" d="M10,4H38a4,4,0,0,1,4,4V40a4,4,0,0,1-4,4H10a4,4,0,0,1-4-4V8A4,4,0,0,1,10,4ZM22.207,27.642h3.844a6.829,6.829,0,0,1,.087-.961,3.672,3.672,0,0,1,.228-.806,3.074,3.074,0,0,1,.417-.706,5.369,5.369,0,0,1,.652-.685q.672-.618,1.263-1.176a8.652,8.652,0,0,0,1.028-1.149,5.02,5.02,0,0,0,.685-1.277,4.554,4.554,0,0,0,.249-1.559,5.747,5.747,0,0,0-.43-2.3,4.386,4.386,0,0,0-1.243-1.667,5.5,5.5,0,0,0-1.983-1.015A9.362,9.362,0,0,0,24.371,14a9.218,9.218,0,0,0-2.487.323,5.49,5.49,0,0,0-2.009,1.015A4.927,4.927,0,0,0,18.517,17.1,6.172,6.172,0,0,0,18,19.685h4.543a2.948,2.948,0,0,1,.175-.995,2.046,2.046,0,0,1,.41-.679,1.585,1.585,0,0,1,.571-.39,1.81,1.81,0,0,1,.672-.128,1.664,1.664,0,0,1,1.31.491,2.271,2.271,0,0,1,.437,1.539,2.512,2.512,0,0,1-.544,1.559,9.458,9.458,0,0,1-1.485,1.492,5.34,5.34,0,0,0-.914.988,4.632,4.632,0,0,0-.578,1.129,6.29,6.29,0,0,0-.3,1.337A13.574,13.574,0,0,0,22.207,27.642Zm-.551,4.086a2.231,2.231,0,0,0,.181.9,2.066,2.066,0,0,0,.517.719,2.514,2.514,0,0,0,.793.477,3.073,3.073,0,0,0,2.043,0,2.514,2.514,0,0,0,.793-.477,2.066,2.066,0,0,0,.517-.719,2.325,2.325,0,0,0,0-1.8,2.066,2.066,0,0,0-.517-.719,2.514,2.514,0,0,0-.793-.477,3.073,3.073,0,0,0-2.043,0,2.514,2.514,0,0,0-.793.477,2.066,2.066,0,0,0-.517.719A2.231,2.231,0,0,0,21.656,31.728Z" transform="translate(-6 -4)" fill="#FAC943" fill-rule="evenodd"/>
</svg>
