<svg xmlns="http://www.w3.org/2000/svg" width="43.992" height="43.992" viewBox="0 0 43.992 43.992">
  <g id="noun_Smile_31242" transform="translate(-4.727 -32)">
    <path id="Path_330" data-name="Path 330" d="M54,35.142A18.854,18.854,0,1,1,35.142,54,18.874,18.874,0,0,1,54,35.142M54,32a22,22,0,1,0,22,22A21.995,21.995,0,0,0,54,32ZM47.711,43c-1.737,0-3.142,2.111-3.142,4.713s1.405,4.713,3.142,4.713,3.142-2.108,3.142-4.713S49.448,43,47.711,43ZM60.28,43c-1.737,0-3.142,2.111-3.142,4.713s1.405,4.713,3.142,4.713,3.142-2.108,3.142-4.713S62.017,43,60.28,43Zm7.794,14.579a1.573,1.573,0,0,0-3.02-.881,11.52,11.52,0,0,1-22.12,0,1.571,1.571,0,1,0-3.016.881,14.664,14.664,0,0,0,28.156,0Z" transform="translate(-27.273)" fill="#fefcf1"/>
  </g>
</svg>
