<svg xmlns="http://www.w3.org/2000/svg" width="40" height="40" viewBox="0 0 40 40">
  <path id="Path_274" data-name="Path 274" d="M6.042,16H41.961A2.166,2.166,0,0,1,44,18.275V41.723A2.167,2.167,0,0,1,41.961,44H6.042A2.17,2.17,0,0,1,4,41.723V18.275A2.168,2.168,0,0,1,6.042,16ZM7.2,12A1.116,1.116,0,0,1,6,11a1.116,1.116,0,0,1,1.2-1H40.8A1.115,1.115,0,0,1,42,11a1.115,1.115,0,0,1-1.2,1Zm3.832-6A.977.977,0,0,1,10,5.1V4.9A.977.977,0,0,1,11.036,4H36.964A.977.977,0,0,1,38,4.9V5.1a.977.977,0,0,1-1.036.9Z" transform="translate(-4 -4)" fill="#7644F8" fill-rule="evenodd"/>
</svg>
