<svg xmlns="http://www.w3.org/2000/svg" width="48" height="48" viewBox="0 0 48 48">
  <g id="Group_988" data-name="Group 988" transform="translate(-11.717 -13.029)">
    <path id="Path_275" data-name="Path 275" d="M11.245,37.1A7.941,7.941,0,0,1,9.922,52.007V44.98a1.984,1.984,0,1,0-3.969,0v7.026A7.941,7.941,0,0,1,4.63,37.1v-22.2A7.941,7.941,0,0,1,5.953,0V7.026a1.984,1.984,0,0,0,3.969,0V0a7.941,7.941,0,0,1,1.323,14.906Z" transform="translate(48.492 13.029) rotate(45)" fill="#10EA7D" fill-rule="evenodd"/>
    <path id="Path_276" data-name="Path 276" d="M0,7.318,3.388,0,6.776,7.318V55.564H0Z" transform="translate(12.435 18.793) rotate(-45)" fill="#10EA7D" fill-rule="evenodd"/>
  </g>
</svg>
