<svg xmlns="http://www.w3.org/2000/svg" width="10.374" height="9.086" viewBox="0 0 10.374 9.086">
  <g id="noun_down_arrow_4424917" data-name="noun_down arrow_4424917" transform="translate(15.337 450.864)">
    <g id="Слой_2" data-name="Слой 2" transform="translate(-15.337 -450.864)">
      <path id="Path_331" data-name="Path 331" d="M26.846,27.764,24.9,29.716a.647.647,0,0,1-.916,0L22.04,27.771a.648.648,0,0,1,.916-.916l.839.839V24.711A2.6,2.6,0,0,0,21.2,22.118H17.312a.649.649,0,0,1,0-1.3H21.2a3.89,3.89,0,0,1,3.89,3.89v2.973l.839-.839a.649.649,0,1,1,.916.919Z" transform="translate(-16.663 -20.82)" fill="#fefcf1"/>
    </g>
  </g>
</svg>
