<svg xmlns="http://www.w3.org/2000/svg" width="20.5" height="19.988" viewBox="0 0 20.5 19.988">
  <path id="github-brands_1_" data-name="github-brands (1)" d="M6.857,24.094c0,.083-.1.149-.215.149-.136.012-.231-.054-.231-.149s.1-.149.215-.149S6.857,24,6.857,24.094Zm-1.285-.186c-.029.083.054.178.178.2a.194.194,0,0,0,.256-.083c.025-.083-.054-.178-.178-.215a.212.212,0,0,0-.256.1Zm1.827-.07c-.12.029-.2.107-.19.2s.12.136.244.107.2-.107.19-.19S7.518,23.826,7.4,23.838ZM10.118,8A9.911,9.911,0,0,0,0,18.085a10.362,10.362,0,0,0,7.006,9.886c.529.1.715-.231.715-.5s-.012-1.67-.012-2.538c0,0-2.893.62-3.5-1.232,0,0-.471-1.2-1.149-1.513,0,0-.946-.649.066-.636a2.182,2.182,0,0,1,1.6,1.066,2.185,2.185,0,0,0,3.013.864,2.3,2.3,0,0,1,.661-1.393c-2.31-.256-4.641-.591-4.641-4.567a3.132,3.132,0,0,1,.975-2.434,3.9,3.9,0,0,1,.107-2.806C5.7,12.013,7.688,13.4,7.688,13.4a9.764,9.764,0,0,1,5.191,0s1.988-1.389,2.852-1.116a3.9,3.9,0,0,1,.107,2.806A3.213,3.213,0,0,1,16.9,17.523c0,3.988-2.434,4.307-4.745,4.567a2.444,2.444,0,0,1,.7,1.918c0,1.393-.012,3.116-.012,3.455,0,.269.19.6.715.5A10.267,10.267,0,0,0,20.5,18.085,10.134,10.134,0,0,0,10.118,8Zm-6.1,14.255c-.054.041-.041.136.029.215s.161.1.215.041.041-.136-.029-.215S4.071,22.2,4.017,22.255Zm-.446-.335c-.029.054.012.12.1.161a.123.123,0,0,0,.178-.029c.029-.054-.012-.12-.1-.161C3.666,21.866,3.6,21.879,3.571,21.92ZM4.91,23.392c-.066.054-.041.178.054.256.1.1.215.107.269.041s.029-.178-.054-.256C5.088,23.338,4.964,23.325,4.91,23.392Zm-.471-.608c-.066.041-.066.149,0,.244s.178.136.231.1a.189.189,0,0,0,0-.256c-.058-.1-.165-.136-.231-.083Z" transform="translate(0 -8)" fill="#fff"/>
</svg>
