<svg xmlns="http://www.w3.org/2000/svg" width="30.651" height="19.451" viewBox="0 0 30.651 19.451">
  <g id="noun-code-110890" transform="translate(-131.7 -399.079)">
    <path id="Path_8" data-name="Path 8" d="M131.7,151.194a1.372,1.372,0,0,1,.641-1.2l7.671-5.017a.691.691,0,0,1,.438-.117,1.358,1.358,0,0,1,.948.438,1.38,1.38,0,0,1,.452,1.021.953.953,0,0,1-.439.846l-6.152,4.025,6.152,4.025a.873.873,0,0,1,.439.846,1.33,1.33,0,0,1-.452,1.006,1.379,1.379,0,0,1-.948.423.691.691,0,0,1-.438-.117l-7.671-5.018a1.349,1.349,0,0,1-.641-1.167Zm11.762,8.817a1.106,1.106,0,0,1,.013-.446l5.35-17.43a.869.869,0,0,1,.775-.664,1.279,1.279,0,0,1,.888.175.993.993,0,0,1,.5.714.931.931,0,0,1-.037.48l-5.336,17.338a.97.97,0,0,1-.856.707,1.081,1.081,0,0,1-.861-.194,1.057,1.057,0,0,1-.44-.68Zm9.22-2.94a1.331,1.331,0,0,1-.452-1.006.931.931,0,0,1,.408-.846l6.154-4.025-6.154-4.025a1.023,1.023,0,0,1-.408-.846,1.376,1.376,0,0,1,.452-1.021,1.357,1.357,0,0,1,.948-.438.644.644,0,0,1,.408.117L161.71,150a1.375,1.375,0,0,1,.641,1.2,1.305,1.305,0,0,1-.641,1.167l-7.671,5.017a.641.641,0,0,1-.408.117,1.378,1.378,0,0,1-.948-.423Z" transform="translate(0 257.626)" fill="#fefcf1"/>
  </g>
</svg>
